HIERARCHY
ROOT Hips
{
	OFFSET 0.00000 0.00000 0.00000
	CHANNELS 6 Xposition Yposition Zposition Zrotation Yrotation Xrotation 
	JOINT LHipJoint
	{
		OFFSET 0 0 0
		CHANNELS 3 Zrotation Yrotation Xrotation
		JOINT LeftHip
		{
			OFFSET 1.54859 -1.61379 0.86856
			CHANNELS 3 Zrotation Yrotation Xrotation
			JOINT LeftKnee
			{
				OFFSET 2.25087 -6.18423 0.00000
				CHANNELS 3 Zrotation Yrotation Xrotation
				JOINT LeftAnkle
				{
					OFFSET 2.40328 -6.60297 0.00000
					CHANNELS 3 Zrotation Yrotation Xrotation
					JOINT LeftToe
					{
						OFFSET 0.17435 -0.47901 2.02453
						CHANNELS 3 Zrotation Yrotation Xrotation
						End Site
						{
							OFFSET 0.00000 -0.00000 1.04844
						}
					}
				}
			}
		}
	}
	JOINT RHipJoint
	{
		OFFSET 0 0 0
		CHANNELS 3 Zrotation Yrotation Xrotation
		JOINT RightHip
		{
			OFFSET -1.54669 -1.61379 0.86856
			CHANNELS 3 Zrotation Yrotation Xrotation
			JOINT RightKnee
			{
				OFFSET -2.28132 -6.26789 0.00000
				CHANNELS 3 Zrotation Yrotation Xrotation
				JOINT RightAnkle
				{
					OFFSET -2.51636 -6.91365 0.00000
					CHANNELS 3 Zrotation Yrotation Xrotation
					JOINT RightToe
					{
						OFFSET -0.15124 -0.41552 2.21090
						CHANNELS 3 Zrotation Yrotation Xrotation
						End Site
						{
							OFFSET -0.00000 -0.00000 1.13399
						}
					}
				}
			}
		}
	}
	JOINT lowerback
	{
		OFFSET 0 0 0
		CHANNELS 3 Zrotation Yrotation Xrotation
		JOINT Chest
		{
			OFFSET -0.04287 2.26161 -0.25690
			CHANNELS 3 Zrotation Yrotation Xrotation
			JOINT Chest2
			{
				OFFSET 0.02248 2.28395 -0.10140
				CHANNELS 3 Zrotation Yrotation Xrotation
				JOINT lowerneck
				{
					OFFSET 0 0 0
					CHANNELS 3 Zrotation Yrotation Xrotation
					JOINT Neck
					{
						OFFSET -0.11644 1.38496 0.11345
						CHANNELS 3 Zrotation Yrotation Xrotation
						JOINT Head
						{
							OFFSET 0.29383 1.36600 0.06642
							CHANNELS 3 Zrotation Yrotation Xrotation
							End Site
							{
								OFFSET 0.11075 1.41395 -0.00294
							}
						}
					}
				}
				JOINT LeftCollar
				{
					OFFSET 0 0 0
					CHANNELS 3 Zrotation Yrotation Xrotation
					JOINT LeftShoulder
					{
						OFFSET 3.51628 0.59542 -0.30346
CHANNELS 3 Zrotation Xrotation Yrotation
						JOINT LeftElbow
						{
OFFSET 0 -4.764050 0.000000
CHANNELS 3 Zrotation Xrotation Yrotation
							JOINT LeftWrist
							{
OFFSET 0 -3.137590 -0.000000
CHANNELS 3 Zrotation Xrotation Yrotation
								JOINT lhand
								{
									OFFSET 0 0 0
CHANNELS 3 Zrotation Xrotation Yrotation
									JOINT LFingers
									{
OFFSET 0 -0.732260 -0.000000
CHANNELS 3 Zrotation Xrotation Yrotation
										End Site
										{
OFFSET 0 -0.590370 -0.000000
										}
									}
								}
								JOINT LThumb
								{
OFFSET 0 0.000000 0.000000
CHANNELS 3 Zrotation Xrotation Yrotation
									End Site
									{
OFFSET 0 -0.599380 0.599380
									}
								}
							}
						}
					}
				}
				JOINT RightCollar
				{
					OFFSET 0 0 0
					CHANNELS 3 Zrotation Yrotation Xrotation
					JOINT RightShoulder
					{
						OFFSET -3.30990 0.84213 -0.36430
CHANNELS 3 Zrotation Xrotation Yrotation
						JOINT RightElbow
						{
OFFSET 0 -5.101610 -0.000000
CHANNELS 3 Zrotation Xrotation Yrotation
							JOINT RightWrist
							{
OFFSET 0 -3.232670 -0.000000
CHANNELS 3 Zrotation Xrotation Yrotation
								JOINT rhand
								{
									OFFSET 0 0 0
CHANNELS 3 Zrotation Xrotation Yrotation
									JOINT RFingers
									{
OFFSET 0 -0.702000 -0.000000
CHANNELS 3 Zrotation Xrotation Yrotation
										End Site
										{
OFFSET 0 -0.565970 -0.000000
										}
									}
								}
								JOINT RThumb
								{
OFFSET 0 0.000000 0.000000
CHANNELS 3 Zrotation Xrotation Yrotation
									End Site
									{
OFFSET 0 -0.574610 0.574610
									}
								}
							}
						}
					}
				}
			}
		}
	}
}
MOTION
Frames: 12
Frame Time: .0083333
5.6222 14.4936 4.7127 186.1060 -40.3431 -176.0330 0.0000 0.0000 0.0000 -16.3972 17.6230 -72.5165 18.9746 19.9748 87.0007 -0.3105 -11.4867 -2.1507 2.3097 -9.4833 -27.3192 0.0000 0.0000 0.0000 24.2062 -20.3208 -58.8987 -17.6148 -19.8630 83.0109 -0.4439 3.7007 -11.8634 -0.0036 0.3855 -1.0593 -2.4227 5.3535 36.9449 2.8811 3.4469 11.5992 3.1519 0.4473 -5.7551 -17.7172 -4.0925 -5.4011 27.1292 -3.4778 -18.8085 12.2907 -2.7609 -3.3737 0.0000 -0.0000 0.0000 47.7033 -17.7483 19.8697 81.9978 -59.7566 53.0756 43.0282 -19.1229 -7.2763 0.0 0.0 0.0 -7.1250 0.0 0.0 14.1496 39.4969 1.9648 0.0000 -0.0000 0.0000 -18.6242 -5.7378 -15.7922 -24.7316 -35.9284 -8.1319 -50.4754 -56.7014 -33.0093 0.0 0.0 0.0 7.1250 0.0 -0.0 -9.6692 -15.0502 -11.9941
5.8220 14.4327 4.5560 186.6930 -39.9485 -176.4310 0.0000 0.0000 0.0000 -16.3903 16.9778 -72.4267 18.9554 19.9738 86.9446 -0.4771 -12.7119 0.6284 2.2973 -9.4597 -27.2441 0.0000 0.0000 0.0000 22.3853 -19.3325 -57.6821 -17.1746 -19.8075 81.7137 -0.5217 2.6973 -12.9863 -0.0053 -0.4679 1.2858 -2.4495 5.4017 37.1398 3.0819 3.4566 11.6762 3.3724 0.4223 -5.7544 -17.5965 -4.0676 -5.9727 27.0907 -3.4236 -18.8357 12.2400 -2.7330 -3.3006 -0.0000 0.0000 0.0000 47.1741 -17.4664 20.1277 82.9619 -59.812 53.9086 43.2841 -18.5238 -7.7247 0.0 0.0 0.0 -7.1250 0.0 0.0 14.4547 40.1143 1.7838 -0.0000 0.0000 0.0000 -18.296 -6.6955 -17.3527 -23.5660 -34.7019 -7.458 -50.1181 -54.8012 -33.0455 0.0 0.0 0.0 7.1250 0.0 -0.0 -9.4740 -14.8986 -11.7286
6.0197 14.3703 4.3996 187.4530 -39.5103 -176.9950 0.0000 0.0000 0.0000 -16.0455 16.3648 -72.0425 18.7706 19.9637 86.4034 -0.5917 -13.5329 3.7184 2.4864 -9.8131 -28.3736 0.0000 0.0000 0.0000 20.6003 -18.3052 -56.2722 -16.6657 -19.7313 80.2090 -0.6057 1.5441 -14.2536 -0.0395 -1.2822 3.5256 -2.1641 5.4849 37.3612 3.3496 3.6204 11.7578 3.4443 0.4710 -5.7557 -17.7666 -4.0970 -6.3281 27.1799 -3.4245 -19.0249 12.3129 -2.7343 -3.2847 -0.0000 0.0000 0.0000 46.5578 -17.6515 20.2332 83.6951 -59.8493 54.5426 43.5604 -17.9691 -8.093 0.0 0.0 0.0 -7.1250 0.0 0.0 14.7683 40.6317 1.6312 -0.0000 0.0000 0.0000 -18.052 -7.5344 -19.2831 -22.5464 -33.589 -6.8857 -49.8275 -53.1732 -32.9324 0.0 0.0 0.0 7.1250 0.0 -0.0 -9.3621 -14.6168 -11.5542
6.2062 14.3019 4.2402 188.1020 -38.9862 -177.5940 0.0000 0.0000 0.0000 -15.5679 15.8146 -71.2458 18.4259 19.9405 85.3934 -0.6154 -13.8721 7.2193 2.3356 -9.5326 -27.4761 0.0000 0.0000 0.0000 18.7350 -17.4080 -54.6779 -16.1086 -19.6330 78.5552 -0.6667 -0.2903 -15.5366 -0.0050 -0.4577 1.2575 -1.8470 5.5910 37.6638 3.5578 3.8156 11.8180 3.4230 0.5355 -5.8014 -17.5408 -4.0670 -6.5755 26.8942 -3.3900 -19.1936 12.1623 -2.7222 -3.3221 0.0000 0.0000 0.0000 45.8978 -17.9261 20.2714 84.3148 -59.8775 55.0785 43.6602 -17.7811 -8.0385 0.0 0.0 0.0 -7.1250 0.0 0.0 14.8485 40.5718 1.663 0.0000 0.0000 0.0000 -17.9112 -8.1192 -20.9636 -21.6849 -32.619 -6.4151 -49.6372 -52.5178 -32.9715 0.0 0.0 0.0 7.1250 0.0 -0.0 -9.2514 -14.5599 -11.408
6.3887 14.2264 4.0798 188.7550 -38.4315 -178.1130 0.0000 0.0000 0.0000 -14.9877 15.2847 -70.3432 17.9727 19.9012 84.0631 -0.5498 -14.0091 10.7795 2.0529 -8.9753 -25.7182 0.0000 0.0000 0.0000 16.7998 -16.3920 -53.3961 -15.5300 -19.5140 76.8281 -0.6617 -2.3600 -16.3998 -0.0018 0.2744 -0.7539 -1.7820 5.6013 37.9137 3.7073 3.8075 11.8466 3.5475 0.5049 -5.8607 -16.7861 -3.7877 -7.1609 26.3840 -3.0629 -19.0688 11.8093 -2.5673 -3.3102 0.0000 -0.0000 0.0000 45.2704 -17.6732 20.6052 85.2969 -59.9163 55.9282 43.8823 -17.8246 -7.9218 0.0 0.0 0.0 -7.1250 0.0 0.0 15.0273 40.444 1.7327 0.0000 -0.0000 0.0000 -17.7205 -8.9073 -22.1998 -20.9037 -31.7157 -5.9992 -49.1541 -51.9004 -33.2352 0.0 0.0 0.0 7.1250 0.0 -0.0 -8.9167 -14.6022 -10.9911
6.5716 14.1291 3.9186 189.4600 -37.8395 -178.5280 0.0000 0.0000 0.0000 -14.3347 14.7498 -69.5141 17.4949 19.8489 82.6577 -0.3881 -14.0127 14.4791 0.0593 -1.5711 -4.3216 0.0000 0.0000 0.0000 15.1711 -15.4679 -52.4354 -14.8968 -19.3638 74.9256 -0.4603 -6.0596 -16.4618 -0.3527 3.8154 -10.5580 -1.2632 5.7067 38.1508 3.9492 4.1541 11.6775 3.3978 0.6718 -6.1348 -17.3859 -3.9243 -7.1466 26.8552 -3.1902 -19.1723 12.1129 -2.6247 -3.2725 -0.0000 -0.0000 0.0000 44.2537 -17.9263 19.967 86.3583 -59.9498 56.8467 44.1992 -17.825 -7.9446 0.0 0.0 0.0 -7.1250 0.0 0.0 15.3171 40.5121 1.7415 -0.0000 -0.0000 0.0000 -17.5426 -8.8164 -23.8275 -20.5409 -31.2885 -5.8097 -48.5948 -51.241 -33.2929 0.0 0.0 0.0 7.1250 0.0 -0.0 -8.6105 -14.3784 -10.582
6.7546 14.0344 3.7581 189.8280 -37.1499 -178.7270 0.0000 0.0000 0.0000 -14.3148 14.6429 -68.5952 17.2364 19.8159 81.8959 -0.4656 -14.2542 13.5110 2.3022 9.4690 27.2738 0.0000 0.0000 0.0000 13.1581 -14.4871 -51.3895 -14.2156 -19.1781 72.8620 -0.3012 -8.2896 -16.5209 -0.4329 4.2221 -11.7024 -1.2385 5.8564 38.3103 4.1372 4.3665 11.5558 3.4987 0.7651 -6.3517 -17.8162 -3.9894 -7.4776 27.2116 -3.2330 -19.0553 12.3203 -2.6224 -3.1407 -0.0000 0.0000 0.0000 43.096 -18.0607 19.6759 87.3608 -59.9737 57.7146 44.4456 -17.3952 -8.0727 0.0 0.0 0.0 -7.1250 0.0 0.0 15.5649 40.7126 1.6921 -0.0000 0.0000 0.0000 -17.3045 -8.6973 -24.5652 -20.3898 -31.1091 -5.7314 -48.6594 -51.1883 -33.5275 0.0 0.0 0.0 7.1250 0.0 -0.0 -8.5672 -14.6726 -10.5591
6.9310 13.9689 3.6055 190.1200 -36.4424 -178.9280 0.0000 0.0000 0.0000 -14.0788 14.6019 -67.6955 17.1035 19.7977 81.5038 -0.4315 -12.8378 -1.2740 0.0050 -0.4581 -1.2588 0.0000 0.0000 0.0000 11.0651 -13.5375 -50.1270 -13.4480 -18.9380 70.5113 -0.3029 -9.0054 -17.2925 -0.0828 1.8566 -5.1095 -1.4233 6.0072 38.4306 4.3765 4.4760 11.5448 3.8042 0.7927 -6.4491 -17.5516 -3.8543 -7.9970 26.6190 -3.0797 -18.9267 12.0224 -2.5047 -3.0930 -0.0000 0.0000 0.0000 41.7339 -18.2394 19.6839 88.2636 -59.9886 58.4963 44.8723 -16.8122 -8.0517 0.0 0.0 0.0 -7.1250 0.0 0.0 15.9471 40.7375 1.726 -0.0000 0.0000 0.0000 -17.2401 -8.5886 -24.6255 -20.3952 -31.1155 -5.7342 -48.9597 -51.2294 -33.0514 0.0 0.0 0.0 7.1250 0.0 -0.0 -8.8768 -14.2961 -10.9069
7.1097 13.9034 3.4581 190.8230 -35.7826 -179.4040 0.0000 0.0000 0.0000 -13.1584 14.5098 -66.9766 17.0657 19.7923 81.3921 0.0303 -8.6237 -6.6135 0.0150 -0.7910 -2.1740 0.0000 0.0000 0.0000 9.5873 -12.6795 -48.9238 -12.6299 -18.6444 67.9720 -0.1655 -10.6951 -17.5090 -0.0381 1.2596 -3.4634 -1.1378 6.0865 38.6336 4.6144 4.6541 11.5464 3.8375 0.8520 -6.5289 -15.8941 -3.3654 -8.6291 24.9215 -2.5981 -18.7546 11.0473 -2.2535 -3.1736 -0.0000 0.0000 0.0000 40.6576 -18.5636 19.5976 89.0923 -59.9969 59.2139 45.197 -16.4914 -8.0149 0.0 0.0 0.0 -7.1250 0.0 0.0 16.2336 40.7289 1.7625 -0.0000 0.0000 0.0000 -16.9699 -8.3213 -24.6878 -20.6373 -31.4025 -5.8598 -48.5848 -50.6668 -31.785 0.0 0.0 0.0 7.1250 0.0 -0.0 -9.0863 -12.6758 -10.981
7.2960 13.7989 3.3106 191.4770 -35.2510 -179.7880 0.0000 0.0000 0.0000 -11.8190 13.9617 -65.9400 16.7814 19.7498 80.5516 0.3372 -9.5682 -11.5036 0.0498 -1.4407 -3.9623 0.0000 0.0000 0.0000 8.1356 -11.9069 -47.9613 -11.8589 -18.3304 65.5408 0.0330 -12.5354 -17.3981 -0.0186 0.8813 -2.4222 -0.8006 6.1537 38.9134 4.8639 4.8598 11.4708 3.8421 0.9318 -6.7171 -15.2162 -3.2414 -8.9917 24.1772 -2.5133 -18.8664 10.6415 -2.2184 -3.2158 0.0000 0.0000 0.0000 39.7139 -18.8932 19.345 89.8246 -59.9999 59.8481 45.2653 -16.4429 -7.9806 0.0 0.0 0.0 -7.1250 0.0 0.0 16.2884 40.6913 1.7844 0.0000 0.0000 0.0000 -16.5933 -7.6798 -24.4657 -21.1757 -32.0329 -6.1429 -48.1427 -50.8215 -30.8535 0.0 0.0 0.0 7.1250 0.0 -0.0 -9.1416 -11.3896 -10.8918
7.4807 13.7108 3.1684 191.7700 -34.8640 -179.9170 0.0000 0.0000 0.0000 -10.4618 13.3600 -65.2072 16.6080 19.7219 80.0380 0.5036 -11.9947 -14.1810 0.4401 4.2569 11.8006 0.0000 0.0000 0.0000 6.4229 -11.3550 -46.9921 -11.0827 -17.9753 63.0498 0.1170 -13.5176 -17.7540 -0.0223 -0.9631 2.6474 -0.8314 6.1562 39.0840 5.0527 4.8332 11.4748 4.0668 0.8974 -6.7894 -14.6777 -2.9376 -9.5920 23.7844 -2.1599 -18.9923 10.4084 -2.0683 -3.2570 -0.0000 0.0000 0.0000 38.8577 -19.0738 19.4765 90.4322 -59.9993 60.3743 45.4954 -16.2769 -8.0018 0.0 0.0 0.0 -7.1250 0.0 0.0 16.5015 40.749 1.785 -0.0000 0.0000 0.0000 -16.1198 -7.6689 -24.4722 -21.5831 -32.5026 -6.3604 -47.9535 -50.8888 -30.7972 0.0 0.0 0.0 7.1250 0.0 -0.0 -9.0589 -11.2313 -10.7714
7.6696 13.6281 3.0217 191.8300 -34.5207 -179.9870 0.0000 0.0000 0.0000 -8.9555 12.8530 -64.5673 16.5527 19.7127 79.8743 0.8610 -10.2068 -16.9873 0.0355 1.2165 3.3446 0.0000 0.0000 0.0000 4.6194 -10.9576 -46.0418 -10.3533 -17.6038 60.6626 0.1829 -14.3669 -18.2256 -0.1567 -2.5503 7.0292 -1.2399 6.0906 39.1897 5.0628 4.5133 11.6587 4.4166 0.7080 -6.6287 -14.2040 -2.2637 -9.9326 23.7209 -1.2895 -19.6675 10.3743 -1.7489 -3.5926 0.0000 -0.0000 0.0000 38.1132 -18.9788 20.1115 91.5083 -59.9914 61.3062 46.0709 -15.6574 -8.336 0.0 0.0 0.0 -7.1250 0.0 0.0 17.1019 41.277 1.6237 0.0000 -0.0000 0.0000 -15.1557 -9.2867 -25.524 -21.4397 -32.338 -6.2835 -47.7924 -49.1815 -31.3752 0.0 0.0 0.0 7.1250 0.0 -0.0 -8.7979 -11.8137 -10.5239
